<svg width="69" height="30" viewBox="0 0 69 30" fill="none" xmlns="http://www.w3.org/2000/svg">
<g clip-path="url(#clip0_75_930)">
<path fill-rule="evenodd" clip-rule="evenodd" d="M15 0.0166836C15.009 8.29329 21.7213 15 30 15C21.7157 15 15 21.7157 15 30C15 21.7157 8.28427 15 0 15C8.27871 15 14.991 8.29329 15 0.0166836C15 0.0166836 15 0.0166836 15 0.0166836Z" fill="#666666"/>
</g>
<g clip-path="url(#clip1_75_930)">
<path fill-rule="evenodd" clip-rule="evenodd" d="M45 6.01001C44.9946 10.976 40.9672 15 36 15C40.9706 15 45 19.0294 45 24C45 19.0294 49.0294 15 54 15C49.0328 15 45.0054 10.976 45 6.01001Z" fill="#333333"/>
</g>
<g clip-path="url(#clip2_75_930)">
<path fill-rule="evenodd" clip-rule="evenodd" d="M68.4 15C68.3999 15 68.3998 15 68.3997 15C66.087 15 64.2108 13.1307 64.1998 10.8205C64.1887 13.1306 62.3127 14.9999 60 15C62.3129 15.0001 64.1891 16.8698 64.1998 19.1803C64.2104 16.8698 66.0867 15 68.3997 15L68.4 15Z" fill="#333333"/>
</g>
<defs>
<clipPath id="clip0_75_930">
<rect width="30" height="30" fill="white"/>
</clipPath>
<clipPath id="clip1_75_930">
<rect width="18" height="18" fill="white" transform="translate(36 6)"/>
</clipPath>
<clipPath id="clip2_75_930">
<rect width="8.4" height="8.4" fill="white" transform="translate(60 10.8)"/>
</clipPath>
</defs>
</svg>
