<svg width="83" height="83" viewBox="0 0 83 83" fill="none" xmlns="http://www.w3.org/2000/svg">
<rect x="1" y="1" width="81" height="81" rx="40.5" stroke="url(#paint0_linear_104_11861)"/>
<rect x="1" y="1" width="81" height="81" rx="40.5" stroke="url(#paint1_linear_104_11861)"/>
<rect x="11" y="11" width="61" height="61" rx="30.5" stroke="url(#paint2_linear_104_11861)"/>
<rect x="11" y="11" width="61" height="61" rx="30.5" stroke="url(#paint3_linear_104_11861)"/>
<path d="M41.5 27.6875C42.0868 27.6875 42.5625 28.1632 42.5625 28.75V31.9375C42.5625 32.5243 42.0868 33 41.5 33C40.9132 33 40.4375 32.5243 40.4375 31.9375V28.75C40.4375 28.1632 40.9132 27.6875 41.5 27.6875Z" fill="#A685FA"/>
<path d="M35.125 41.5C35.125 37.9792 37.9792 35.125 41.5 35.125C45.0208 35.125 47.875 37.9792 47.875 41.5C47.875 45.0208 45.0208 47.875 41.5 47.875C37.9792 47.875 35.125 45.0208 35.125 41.5Z" fill="#A685FA"/>
<path d="M51.267 33.2356C51.6819 32.8207 51.6819 32.148 51.267 31.733C50.8521 31.3181 50.1793 31.3181 49.7644 31.733L47.5105 33.9869C47.0955 34.4019 47.0955 35.0746 47.5105 35.4895C47.9254 35.9045 48.5982 35.9045 49.0131 35.4895L51.267 33.2356Z" fill="#A685FA"/>
<path d="M55.3125 41.5C55.3125 42.0868 54.8368 42.5625 54.25 42.5625H51.0625C50.4757 42.5625 50 42.0868 50 41.5C50 40.9132 50.4757 40.4375 51.0625 40.4375H54.25C54.8368 40.4375 55.3125 40.9132 55.3125 41.5Z" fill="#A685FA"/>
<path d="M49.7642 51.2669C50.1792 51.6818 50.8519 51.6818 51.2668 51.2669C51.6818 50.8519 51.6818 50.1792 51.2668 49.7643L49.0129 47.5104C48.598 47.0954 47.9253 47.0954 47.5103 47.5104C47.0954 47.9253 47.0954 48.598 47.5103 49.013L49.7642 51.2669Z" fill="#A685FA"/>
<path d="M41.5 50C42.0868 50 42.5625 50.4757 42.5625 51.0625V54.25C42.5625 54.8368 42.0868 55.3125 41.5 55.3125C40.9132 55.3125 40.4375 54.8368 40.4375 54.25V51.0625C40.4375 50.4757 40.9132 50 41.5 50Z" fill="#A685FA"/>
<path d="M35.4898 49.013C35.9047 48.598 35.9047 47.9253 35.4898 47.5104C35.0749 47.0954 34.4021 47.0954 33.9872 47.5104L31.7333 49.7643C31.3184 50.1792 31.3184 50.8519 31.7333 51.2669C32.1482 51.6818 32.821 51.6818 33.2359 51.2669L35.4898 49.013Z" fill="#A685FA"/>
<path d="M33 41.5C33 42.0868 32.5243 42.5625 31.9375 42.5625H28.75C28.1632 42.5625 27.6875 42.0868 27.6875 41.5C27.6875 40.9132 28.1632 40.4375 28.75 40.4375H31.9375C32.5243 40.4375 33 40.9132 33 41.5Z" fill="#A685FA"/>
<path d="M33.987 35.4895C34.402 35.9045 35.0747 35.9045 35.4896 35.4895C35.9046 35.0746 35.9046 34.4019 35.4896 33.9869L33.2357 31.733C32.8208 31.3181 32.1481 31.3181 31.7331 31.733C31.3182 32.148 31.3182 32.8207 31.7331 33.2356L33.987 35.4895Z" fill="#A685FA"/>
<defs>
<linearGradient id="paint0_linear_104_11861" x1="7.25" y1="87" x2="86.25" y2="-5" gradientUnits="userSpaceOnUse">
<stop stop-color="#A685FA"/>
<stop offset="0.323723" stop-color="#A685FA" stop-opacity="0"/>
</linearGradient>
<linearGradient id="paint1_linear_104_11861" x1="82.25" y1="-10" x2="7.25" y2="82.5" gradientUnits="userSpaceOnUse">
<stop stop-color="#A685FA"/>
<stop offset="0.576615" stop-color="#A685FA" stop-opacity="0"/>
</linearGradient>
<linearGradient id="paint2_linear_104_11861" x1="3.75" y1="14" x2="72.25" y2="72.5" gradientUnits="userSpaceOnUse">
<stop stop-color="#A685FA"/>
<stop offset="0.323723" stop-color="#A685FA" stop-opacity="0"/>
</linearGradient>
<linearGradient id="paint3_linear_104_11861" x1="84.75" y1="86.5" x2="12.75" y2="35.5" gradientUnits="userSpaceOnUse">
<stop stop-color="#A685FA"/>
<stop offset="0.576615" stop-color="#A685FA" stop-opacity="0"/>
</linearGradient>
</defs>
</svg>
